<svg xmlns="http://www.w3.org/2000/svg" id="Layer_1" viewBox="0.97 0 83.78 66">
    <defs>
        <style>
            .cls-1 {
                fill: #4b92d7;
            }
        </style>
    </defs>
    <title>UNFCCC</title>
    <path class="cls-1"
        d="M57.9961,60.14394c-4.19315-1.81851-8.54595-4.12947-13.60235-3.02681-.53852.0095-1.01344.31936-1.53708.345-.52364-.02568-.99856-.33554-1.53708-.345-5.05369-1.10266-9.40649,1.2083-13.6037,3.02681a11.163,11.163,0,0,1-9.96666-.86185,11.50489,11.50489,0,0,0,15.59405,1.89836c2.47747-1.39642,4.61124-4.13632,7.87619-3.10121a31.43379,31.43379,0,0,0-9.10883,6.50411L33.83039,66A27.66845,27.66845,0,0,1,41.191,59.416a4.882,4.882,0,0,1,1.66562-.75235A4.92953,4.92953,0,0,1,44.525,59.416,27.74627,27.74627,0,0,1,51.88431,66l1.71434-1.41665a31.38711,31.38711,0,0,0-9.10207-6.50411c3.26224-1.03511,5.396,1.70479,7.87348,3.10121a11.50491,11.50491,0,0,0,15.59406-1.89836,11.1662,11.1662,0,0,1-9.968.86185">
    </path>
    <path class="cls-1"
        d="M11.40512,18.29534a15.8976,15.8976,0,0,0,1.31517-4.553,5.981,5.981,0,0,1-1.20151,1.79555c-2.36246,2.15132-5.05641,4.36632-5.57057,7.477a13.208,13.208,0,0,1-.2422,1.33679c-.09877.046-.09877-.073-.14477-.10009l.28684-3.86032c.10013-3.7737-1.70215-7.9533.47222-11.2656-.07306-.01618-.11365.042-.16913.07441a13.27315,13.27315,0,0,0-3.29471,8.6826c-.27332,4.17291,2.4044,7.11581,2.70478,11.04377.617-4.10114,4.01047-7.04412,5.84388-10.6311">
    </path>
    <path class="cls-1"
        d="M13.75174,48.70409c-.40052-1.01207-1.01345-1.96328-1.31518-3.02267-1.15958-4.87108-.53176-10.46328-2.606-14.95679.387,2.55459-.63053,4.80609-.86325,7.23622a10.23548,10.23548,0,0,0,.93632,5.61244c.16913.51012.6427.94443.75636,1.44506a12.70473,12.70473,0,0,1-1.78875-2.37051c-2.3638-3.92928-7.46214-6.442-7.80176-11.19118A13.25616,13.25616,0,0,0,1.78253,37.682c1.89159,5.33785,7.70435,8.11169,11.96921,11.02205">
    </path>
    <path class="cls-1"
        d="M6.73462,19.0538a12.69743,12.69743,0,0,1,3.16751-3.78311c3.04981-2.15678,6.24168-5.17,6.28769-9.00063-.99179,2.75221-3.97124,3.91582-5.99,5.7857A9.85638,9.85638,0,0,0,7.86848,15.498l-.07442-.05954c.24626-1.1.7469-2.09178,1.03239-3.17422.90385-2.91044.71848-6.41218,3.55179-8.36332A7.09334,7.09334,0,0,0,8.59779,6.44464C6.234,8.92077,6.48024,12.74319,6.80768,16.0839c.07307,1.03916-.14342,2.0106-.07306,2.9699">
    </path>
    <path class="cls-1"
        d="M7.52494,39.16022l.21513.17731a11.18986,11.18986,0,0,1,.10013-4.752c.67247-2.39759,1.44642-4.73977,1.96059-7.20508a24.28707,24.28707,0,0,0,.51687-5.95748,10.8406,10.8406,0,0,1-1.077,2.85627C7.1109,27.509,4.9893,31.34088,6.46278,35.4772c-.04194.04063-.08388.10018-.14207.069A35.94491,35.94491,0,0,1,5.21932,31.1691c-.99044-3.88873-3.9956-7.11712-3.12287-11.59717a15.51109,15.51109,0,0,0-.88626,3.12971,17.6211,17.6211,0,0,0,.74554,8.167c.91332,3.15811,4.00777,5.41366,5.56921,8.29156">
    </path>
    <path class="cls-1"
        d="M10.19994,10.74547c1.58985-1.49238,3.3813-2.63708,4.78443-4.37309A34.96875,34.96875,0,0,1,20.11248.00083c-2.8685,1.11761-6.0739,2.18254-7.80717,5.20661-1.2137,1.63716-1.24212,3.76016-2.10537,5.538">
    </path>
    <path class="cls-1"
        d="M79.86554,20.39109l.28414,3.86033c-.0406.02841-.0406.14617-.14343.10149-.12584-.433-.1556-.89306-.24085-1.33687-.51416-3.11063-3.21082-5.32563-5.57055-7.477A6.019,6.019,0,0,1,72.992,13.74354a15.86573,15.86573,0,0,0,1.31788,4.55172c1.83476,3.5883,5.22283,6.52987,5.83983,10.63234.30173-3.92929,2.97944-6.87086,2.70613-11.04642a13.25322,13.25322,0,0,0-3.292-8.68127c-.05682-.03246-.09877-.092-.17319-.073,2.17708,3.3109.3748,7.48917.47494,11.26419">
    </path>
    <path class="cls-1"
        d="M80.494,31.16927a36.365,36.365,0,0,1-1.10275,4.37582c-.05548.03254-.10014-.027-.14073-.06764,1.47349-4.13632-.64676-7.96816-2.77919-11.19795a10.93259,10.93259,0,0,1-1.07568-2.85627,24.28647,24.28647,0,0,0,.51687,5.95748c.51551,2.46531,1.28946,4.80748,1.95923,7.20508a11.20508,11.20508,0,0,1,.10148,4.75058l.21785-.1759c1.56008-2.8779,4.65182-5.13345,5.56785-8.29156a17.65741,17.65741,0,0,0,.74554-8.16711,15.69536,15.69536,0,0,0-.889-3.12962c.87272,4.48-2.13378,7.70843-3.12151,11.59709">
    </path>
    <path class="cls-1"
        d="M76.88487,12.2647c.28955,1.08111.79019,2.073,1.03374,3.1743l-.07036.05822a9.89822,9.89822,0,0,0-2.3354-3.4422c-2.02147-1.87-5.00227-3.03358-5.98865-5.7857.04329,3.83051,3.23653,6.84517,6.289,9.002a12.6979,12.6979,0,0,1,3.16212,3.78311c.07442-.9593-.14343-1.93752-.07036-2.9699.32879-3.34211.57505-7.16313-1.79146-9.64058a7.09016,7.09016,0,0,0-3.775-2.54377c2.82925,1.95246,2.64659,5.45421,3.54638,8.36457">
    </path>
    <path class="cls-1"
        d="M70.72775,6.37155c1.40312,1.73742,3.19322,2.882,4.78443,4.37318-.85785-1.77664-.8849-3.89955-2.10537-5.53679C71.67625,2.18254,68.46407,1.11762,65.60235,0a35.16137,35.16137,0,0,1,5.1254,6.37155">
    </path>
    <path class="cls-1"
        d="M69.76979,51.49437A10.65458,10.65458,0,0,1,67.84167,52.88v-.00949c-.13666.07986-.26926.15286-.40458.21513l-.046-.046c.06223-.05277.12312-.10959.18672-.16236v-.00677a12.6733,12.6733,0,0,0,2.4328-2.68581c2.3354-3.26225,1.5222-7.81935,3.26495-11.32382a26.55979,26.55979,0,0,0-3.99424,6.05765c-1.07164,2.63717-1.644,5.53407-3.246,7.94248v.0095A10.01041,10.01041,0,0,1,63.999,55.10843c3.05657-1.004,6.56237-.91057,9.47957-2.23795a8.86889,8.86889,0,0,0,1.44372-.81858c3.453-2.123,6.53123-5.72888,7.1753-9.68658-2.376,5.39326-8.32947,5.8398-12.32776,9.12905">
    </path>
    <path class="cls-1"
        d="M84.64916,31.45617c-.345,4.74926-5.44338,7.26189-7.80854,11.19126a12.71931,12.71931,0,0,1-1.78874,2.37191c.11636-.502.58857-.935.76176-1.44647a10.26836,10.26836,0,0,0,.93092-5.61252c-.23137-2.43005-1.24617-4.68022-.8592-7.23613-2.07424,4.4935-1.44913,10.08571-2.60871,14.9567a32.02573,32.02573,0,0,1-1.31653,3.02276c4.26891-2.91044,10.08168-5.68421,11.97326-11.022a13.29149,13.29149,0,0,0,.71578-6.22546">
    </path>
    <path class="cls-1"
        d="M60.86392,56.46051a7.27844,7.27844,0,0,1-2.13649.27335c.60076-.39236,1.44913-.34636,2.10942-.6914a7.10208,7.10208,0,0,0,3.69387-3.1648v-.00677c1.1-1.75492,1.81716-3.83869,3.03356-5.46907a46.2908,46.2908,0,0,0-6.3215,5.46635v.00272c-.433.40863-.86868.82667-1.30977,1.24612a13.34238,13.34238,0,0,1-6.3594,2.82926c.56016.19894,1.28811.14477,1.89158.29771,4.16608,1.03512,8.80574,2.7115,13.23161,1.2083a12.899,12.899,0,0,0,7.04675-5.58139c.0839-.14617.16373-.295.24085-.44521-.13395.15427-.272.30721-.40863.44521C71.729,56.669,65.76741,55.36321,60.86392,56.46051">
    </path>
    <path class="cls-1"
        d="M30.249,57.24489c.60211-.15418,1.3314-.10009,1.89158-.30036a13.31562,13.31562,0,0,1-6.36075-2.82785c-.44246-.41813-.87679-.83757-1.30842-1.24488v-.00264a46.37206,46.37206,0,0,0-6.32151-5.46775c1.2137,1.63178,1.92811,3.71415,3.03086,5.47039v.00545A7.08863,7.08863,0,0,0,24.88,56.04205c.65488.345,1.50461.299,2.104.6914a7.29729,7.29729,0,0,1-2.13243-.27195c-4.90485-1.0973-10.87727.21653-14.71186-3.5897-.13936-.14072-.276-.29227-.41-.44645.07442.15154.157.299.23948.44645a12.99342,12.99342,0,0,0,7.04811,5.58006c4.42453,1.50461,9.06283-.17318,13.23162-1.207">
    </path>
    <path class="cls-1"
        d="M12.23753,52.87106c2.91991,1.32333,6.42163,1.23405,9.47685,2.238a9.98013,9.98013,0,0,1-2.03636-2.238v-.01082c-1.602-2.40841-2.17979-5.304-3.2487-7.94248a26.44947,26.44947,0,0,0-3.9929-6.05765c1.74546,3.50579.9282,8.06288,3.265,11.32513a12.86425,12.86425,0,0,0,2.43551,2.68582v.00545c.06089.05409.12043.10959.18537.16368l-.046.04608c-.13531-.06359-.27333-.13668-.40592-.21521l.02029.01494a11.07994,11.07994,0,0,1-1.9484-1.391c-3.9929-3.29066-9.95043-3.73579-12.32641-9.12913.64406,3.95637,3.72363,7.56366,7.17393,9.68526a8.56913,8.56913,0,0,0,1.44779.8199">
    </path>
    <path class="cls-1"
        d="M42.857,51.03041A24.93248,24.93248,0,0,0,65.45446,36.6352l-5.6504-2.633a18.69733,18.69733,0,1,1,0-15.80245l5.6504-2.629A24.93075,24.93075,0,1,0,42.857,51.03041">
    </path>
    <path class="cls-1"
        d="M42.857,17.99953a8.10011,8.10011,0,0,1,6.63813,3.45574L54.08872,18.239a13.71533,13.71533,0,1,0,0,15.724l-4.59364-3.21758A8.10175,8.10175,0,1,1,42.857,17.99953">
    </path>
</svg>